HIERARCHY
ROOT Hips
{
	OFFSET 0.00000 0.00000 0.00000
	CHANNELS 6 Xposition Yposition Zposition Zrotation Yrotation Xrotation 
	JOINT LHipJoint
	{
		OFFSET 0 0 0
		CHANNELS 3 Zrotation Yrotation Xrotation
		JOINT LeftUpLeg
		{
			OFFSET 1.60223 -1.58443 0.78595
			CHANNELS 3 Zrotation Yrotation Xrotation
			JOINT LeftLeg
			{
				OFFSET 2.21690 -6.09089 0.00000
				CHANNELS 3 Zrotation Yrotation Xrotation
				JOINT LeftFoot
				{
					OFFSET 2.34805 -6.45122 0.00000
					CHANNELS 3 Zrotation Yrotation Xrotation
					JOINT LeftToeBase
					{
						OFFSET 0.35452 -0.97402 1.38549
						CHANNELS 3 Zrotation Yrotation Xrotation
						End Site
						{
							OFFSET 0.00000 -0.00000 0.82816
						}
					}
				}
			}
		}
	}
	JOINT RHipJoint
	{
		OFFSET 0 0 0
		CHANNELS 3 Zrotation Yrotation Xrotation
		JOINT RightUpLeg
		{
			OFFSET -1.56524 -1.58443 0.78595
			CHANNELS 3 Zrotation Yrotation Xrotation
			JOINT RightLeg
			{
				OFFSET -2.15558 -5.92241 0.00000
				CHANNELS 3 Zrotation Yrotation Xrotation
				JOINT RightFoot
				{
					OFFSET -2.35077 -6.45870 0.00000
					CHANNELS 3 Zrotation Yrotation Xrotation
					JOINT RightToeBase
					{
						OFFSET -0.26910 -0.73935 1.33295
						CHANNELS 3 Zrotation Yrotation Xrotation
						End Site
						{
							OFFSET -0.00000 -0.00000 0.75962
						}
					}
				}
			}
		}
	}
	JOINT LowerBack
	{
		OFFSET 0 0 0
		CHANNELS 3 Zrotation Yrotation Xrotation
		JOINT Spine
		{
			OFFSET -0.05489 1.97104 -0.02993
			CHANNELS 3 Zrotation Yrotation Xrotation
			JOINT Spine1
			{
				OFFSET -0.00702 1.94230 0.13626
				CHANNELS 3 Zrotation Yrotation Xrotation
				JOINT Neck
				{
					OFFSET 0 0 0
					CHANNELS 3 Zrotation Yrotation Xrotation
					JOINT Neck1
					{
						OFFSET -0.07858 1.62869 -0.02510
						CHANNELS 3 Zrotation Yrotation Xrotation
						JOINT Head
						{
							OFFSET 0.13978 1.59213 -0.29859
							CHANNELS 3 Zrotation Yrotation Xrotation
							End Site
							{
								OFFSET 0.05353 1.64420 -0.10000
							}
						}
					}
				}
				JOINT LeftShoulder
				{
					OFFSET 0 0 0
					CHANNELS 3 Zrotation Yrotation Xrotation
					JOINT LeftArm
					{
						OFFSET 3.48263 1.15278 0.52941
						CHANNELS 3 Zrotation Yrotation Xrotation
						JOINT LeftForeArm
						{
							OFFSET 4.59207 -0.00000 -0.00000
							CHANNELS 3 Zrotation Yrotation Xrotation
							JOINT LeftHand
							{
								OFFSET 2.98109 -0.00000 -0.00000
								CHANNELS 3 Zrotation Yrotation Xrotation
								JOINT LeftFingerBase
								{
									OFFSET 0 0 0
									CHANNELS 3 Zrotation Yrotation Xrotation
									JOINT LeftHandIndex1
									{
										OFFSET 0.48020 -0.00000 -0.00000
										CHANNELS 3 Zrotation Yrotation Xrotation
										End Site
										{
											OFFSET 0.38715 -0.00000 -0.00000
										}
									}
								}
								JOINT LThumb
								{
									OFFSET 0 0 0
									CHANNELS 3 Zrotation Yrotation Xrotation
									End Site
									{
										OFFSET 0.39306 -0.00000 0.39306
									}
								}
							}
						}
					}
				}
				JOINT RightShoulder
				{
					OFFSET 0 0 0
					CHANNELS 3 Zrotation Yrotation Xrotation
					JOINT RightArm
					{
						OFFSET -3.52496 1.12722 0.24548
						CHANNELS 3 Zrotation Yrotation Xrotation
						JOINT RightForeArm
						{
							OFFSET -4.76508 -0.00000 -0.00000
							CHANNELS 3 Zrotation Yrotation Xrotation
							JOINT RightHand
							{
								OFFSET -2.78902 -0.00000 -0.00000
								CHANNELS 3 Zrotation Yrotation Xrotation
								JOINT RightFingerBase
								{
									OFFSET 0 0 0
									CHANNELS 3 Zrotation Yrotation Xrotation
									JOINT RightHandIndex1
									{
										OFFSET -0.72130 -0.00000 -0.00000
										CHANNELS 3 Zrotation Yrotation Xrotation
										End Site
										{
											OFFSET -0.58153 -0.00000 -0.00000
										}
									}
								}
								JOINT RThumb
								{
									OFFSET 0 0 0
									CHANNELS 3 Zrotation Yrotation Xrotation
									End Site
									{
										OFFSET -0.59041 -0.00000 0.59041
									}
								}
							}
						}
					}
				}
			}
		}
	}
}
MOTION
Frames: 6
Frame Time: .0083333
21.3878 16.0098 2.2893 0 0 0 0 0 0 -21 0 0 0 0 0 0 0 0 0 0 0 0 0 0 21 0 0 0 0 0 0 0 0 0 0 0 0 0 0 0 0 0 0 0 0 0 0 -16 0 0 21 0 0 11 0 0 0 -8 0 0 0 0 0 0 0 0 0 0 0 0 0 0 0 0 0 0 0 0 8 0 0 0 0 0 0 0 0 0 0 0 0 0 0 0 0 0
21.3878 16.0098 2.2893 164.3960 -85.7162 -156.5970 0.0000 0.0000 0.0000 -21.4858 -7.3939 -15.8654 3.0514 10.7778 31.5339 2.0215 -10.4253 -25.5539 1.0299 6.4552 18.1111 0.0000 0.0000 0.0000 18.5919 3.8413 -15.4892 -2.0579 -8.9857 25.7505 -1.6233 -3.1995 -25.3981 -1.8272 8.4964 -24.2324 -7.0944 1.5258 -1.1497 1.7380 1.6188 -8.6069 5.7424 1.2909 -8.7665 -15.0378 -4.9806 -2.0332 15.9654 -7.4474 7.5383 7.1185 -3.6531 3.7149 0.0000 0.0000 0.0000 -102.9528 12.8536 1.0082 21.1948 -32.0550 -6.1530 -0.0000 -0.0000 15.7791 6.5836 33.1650 3.6127 -7.1250 0.0000 -0.0000 -30.1228 60.7277 -12.1824 0.0000 0.0000 0.0000 95.6577 -6.7899 -6.4381 -17.6610 27.7210 -4.3904 0.0000 0.0000 12.9168 0.2353 21.5787 0.0865 7.1250 -0.0000 -0.0000 18.1667 -9.2196 15.8624
21.3867 16.0161 2.2908 164.7690 -85.7243 -156.9060 0.0000 0.0000 0.0000 -21.4662 -7.4419 -15.8748 3.0375 10.7555 31.4596 2.0401 -10.3384 -25.6676 0.9819 6.3076 17.6797 0.0000 0.0000 0.0000 18.5839 3.8868 -15.6332 -2.0674 -9.0051 25.8112 -1.6264 -3.1154 -25.3817 -1.8697 8.5893 -24.5187 -7.0405 1.6419 -1.2481 1.6130 1.7743 -8.6179 5.5672 1.3563 -8.7367 -15.0551 -5.3929 -1.3050 15.9472 -8.0390 6.8983 7.0914 -3.9788 3.4993 -0.0000 0.0000 0.0000 -102.6289 13.2178 2.1638 21.5554 -32.4709 -6.3455 -0.0000 -0.0000 15.0757 9.9629 32.5052 5.3925 -7.1250 0.0000 -0.0000 -26.0364 60.9665 -10.5353 -0.0000 0.0000 0.0000 95.9370 -6.7635 -7.6064 -17.2750 27.2189 -4.2123 0.0000 0.0000 11.4518 1.6816 24.9039 0.7083 7.1250 -0.0000 -0.0000 18.8703 -6.1352 17.7612
21.3871 16.0182 2.2908 165.4880 -85.7552 -157.6090 0.0000 0.0000 0.0000 -21.3977 -7.4766 -15.9005 3.0441 10.7662 31.4953 2.0461 -10.3380 -25.7055 0.9967 6.3533 17.8132 0.0000 0.0000 0.0000 18.6459 3.8950 -15.6445 -2.0611 -8.9921 25.7707 -1.6242 -3.0991 -25.3583 -1.8696 8.5889 -24.5176 -6.9588 1.6724 -1.2728 1.5595 1.8165 -8.6166 5.4607 1.3677 -8.7196 -14.9292 -5.6943 -0.9158 15.6512 -8.4451 6.5774 6.9558 -4.1998 3.3874 0.0000 0.0000 0.0000 -102.4626 13.5461 2.9109 21.9733 -32.9468 -6.5713 -0.0000 -0.0000 14.3767 10.7388 33.2433 5.9356 -7.1250 0.0000 -0.0000 -25.9207 61.8098 -11.0051 0.0000 0.0000 0.0000 96.0930 -6.6432 -8.6953 -16.7876 26.5769 -3.9918 0.0000 0.0000 10.1795 3.4478 28.1347 1.6273 7.1250 -0.0000 -0.0000 19.7492 -3.1637 19.8670
21.3891 16.0175 2.2904 166.5350 -85.7803 -158.6620 0.0000 0.0000 0.0000 -21.2982 -7.4985 -15.9064 3.0479 10.7723 31.5156 2.0431 -10.3342 -25.6863 1.0192 6.4225 18.0154 0.0000 0.0000 0.0000 18.7456 3.9119 -15.6271 -2.0584 -8.9867 25.7538 -1.6233 -3.1291 -25.3653 -1.8360 8.5157 -24.2918 -6.8004 1.6809 -1.2370 1.5024 1.8289 -8.6050 5.3079 1.3592 -8.7166 -14.5800 -5.8428 -0.9640 15.1774 -8.6134 6.6185 6.7294 -4.2826 3.3992 0.0000 -0.0000 0.0000 -102.3746 13.4920 2.6939 22.0439 -33.0266 -6.6098 -0.0000 -0.0000 14.3395 10.0197 33.7005 5.5989 -7.1250 0.0000 -0.0000 -27.1205 62.0323 -11.6988 0.0000 -0.0000 0.0000 96.2545 -6.4283 -9.8158 -16.2919 25.9148 -3.7726 0.0000 0.0000 8.8731 5.7950 31.3454 3.0220 7.1250 -0.0000 -0.0000 20.9138 -0.2348 22.3763
21.3922 16.0169 2.2903 167.1590 -85.7789 -159.2850 0.0000 0.0000 0.0000 -21.2408 -7.5397 -15.9331 3.0565 10.7859 31.5612 2.0471 -10.3191 -25.7108 1.0221 6.4314 18.0414 0.0000 0.0000 0.0000 18.7953 3.9478 -15.6123 -2.0518 -8.9731 25.7112 -1.6244 -3.1808 -25.3974 -1.7852 8.4036 -23.9467 -6.6973 1.6768 -1.2106 1.4776 1.8275 -8.5674 5.2226 1.3483 -8.6821 -14.2560 -5.7467 -1.1723 14.8335 -8.4413 6.7146 6.5689 -4.1883 3.4078 0.0000 0.0000 0.0000 -102.3136 13.5978 2.7561 22.1976 -33.1996 -6.6937 -0.0000 -0.0000 14.3863 10.1653 33.6832 5.6789 -7.1250 0.0000 -0.0000 -26.9511 62.0536 -11.6334 0.0000 0.0000 0.0000 96.2573 -5.9573 -12.0817 -15.5489 24.9052 -3.4538 0.0000 0.0000 6.3034 12.6272 37.4243 7.7527 7.1250 -0.0000 -0.0000 24.1177 5.3483 28.8356
